/home/minht/3dpredictsim_tutorial/predsim_tutorial/Results/Case_12/GRF.mot
version=1
nRows=27
nColumns=19
inDegrees=yes
endheader 
time	r_ground_force_vx	r_ground_force_vy	r_ground_force_vz	r_ground_force_px	r_ground_force_py	r_ground_force_pz	l_ground_force_vx	l_ground_force_vy	l_ground_force_vz	l_ground_force_px	l_ground_force_py	l_ground_force_pz	r_ground_torque_x	r_ground_torque_y	r_ground_torque_z	l_ground_torque_x	l_ground_torque_y	l_ground_torque_z	
          0.25919432	        -15.56892732	        684.19324780	          5.34505765	         -0.08741747	          0.00000000	          0.03209092	         26.85726826	        196.42950436	         31.04370673	          0.96860698	          0.00000000	         -0.37322371	          0.00000000	         13.79171252	          0.00000000	          0.00000000	         26.34632496	          0.00000000	
          0.26704869	        -15.10057807	        694.01107185	          4.80835071	         -0.07917072	          0.00000000	          0.02991765	         21.84113806	        181.15004699	         32.25272935	          1.07082900	          0.00000000	         -0.40942049	          0.00000000	         13.70024544	          0.00000000	          0.00000000	         29.58912633	          0.00000000	
          0.27490307	        -14.90952238	        706.10944132	          4.19982932	         -0.06992129	          0.00000000	          0.02727435	         16.61375588	        163.41770612	         33.95596242	          1.21405840	          0.00000000	         -0.46065160	          0.00000000	         13.60290774	          0.00000000	          0.00000000	         34.88648294	          0.00000000	
          0.28275744	        -15.29265947	        720.37077729	          3.69942845	         -0.05967182	          0.00000000	          0.02408605	         10.74853383	        142.82171705	         35.63518730	          1.42461706	          0.00000000	         -0.53661048	          0.00000000	         13.25410507	          0.00000000	          0.00000000	         42.51054647	          0.00000000	
          0.29061181	        -16.23133121	        738.30975001	          3.56964800	         -0.04840226	          0.00000000	          0.02023463	          3.06937271	        119.11959321	         36.21866541	          1.75930580	          0.00000000	         -0.65833735	          0.00000000	         12.16106580	          0.00000000	          0.00000000	         51.69773257	          0.00000000	
          0.29846619	        -17.56075903	        758.88809876	          3.44743762	         -0.03646119	          0.00000000	          0.01575595	         -5.75181796	         92.45041321	         34.78741761	          2.34099381	          0.00000000	         -0.87091280	          0.00000000	         10.15024864	          0.00000000	          0.00000000	         62.45670230	          0.00000000	
          0.30632056	        -19.28552599	        781.80411851	          3.75751160	         -0.02496670	          0.00000000	          0.01104513	        -14.90653963	         65.32308943	         30.36749293	          3.42795022	          0.00000000	         -1.26901962	          0.00000000	          7.29403354	          0.00000000	          0.00000000	         71.29639592	          0.00000000	
          0.31417493	        -21.09260317	        807.08426526	          4.48742493	         -0.01512403	          0.00000000	          0.00674997	        -22.09690702	         40.91047738	         21.11163607	          5.67236449	          0.00000000	         -2.09158817	          0.00000000	          3.43312397	          0.00000000	          0.00000000	         59.71998447	          0.00000000	
          0.32202931	        -22.85633766	        832.91430011	          5.44157247	         -0.00874303	          0.00000000	          0.00388572	          0.00000000	          0.00000000	          0.00000000	          0.00000000	          0.00000000	          0.00000000	          0.00000000	         -0.22023211	          0.00000000	          0.00000000	          0.00000000	          0.00000000	
          0.32988368	        -24.33689247	        857.87267474	          6.30626323	         -0.00632205	          0.00000000	          0.00282060	          0.00000000	          0.00000000	          0.00000000	          0.00000000	          0.00000000	          0.00000000	          0.00000000	         -1.87992064	          0.00000000	          0.00000000	          0.00000000	          0.00000000	
          0.33773805	        -25.25449137	        879.68109670	          6.81860561	         -0.00500966	          0.00000000	          0.00228040	          0.00000000	          0.00000000	          0.00000000	          0.00000000	          0.00000000	          0.00000000	          0.00000000	         -2.62969065	          0.00000000	          0.00000000	          0.00000000	          0.00000000	
          0.34559243	        -25.61925732	        898.04235202	          7.28774367	         -0.00384189	          0.00000000	          0.00181513	          0.00000000	          0.00000000	          0.00000000	          0.00000000	          0.00000000	          0.00000000	          0.00000000	         -2.77070796	          0.00000000	          0.00000000	          0.00000000	          0.00000000	
          0.35344680	        -25.90746587	        914.21343885	          7.87238624	         -0.00280933	          0.00000000	          0.00139726	          0.00000000	          0.00000000	          0.00000000	          0.00000000	          0.00000000	          0.00000000	          0.00000000	         -2.53542839	          0.00000000	          0.00000000	          0.00000000	          0.00000000	
          0.36130117	        -26.14848458	        929.12764845	          8.69297941	         -0.00199520	          0.00000000	          0.00105788	          0.00000000	          0.00000000	          0.00000000	          0.00000000	          0.00000000	          0.00000000	          0.00000000	         -2.16334446	          0.00000000	          0.00000000	          0.00000000	          0.00000000	
          0.36915555	        -26.75142868	        943.29293638	          9.67595160	         -0.00140011	          0.00000000	          0.00080061	          0.00000000	          0.00000000	          0.00000000	          0.00000000	          0.00000000	          0.00000000	          0.00000000	         -1.77108322	          0.00000000	          0.00000000	          0.00000000	          0.00000000	
          0.37700992	        -27.83165498	        957.13239290	         10.93880390	         -0.00098334	          0.00000000	          0.00061265	          0.00000000	          0.00000000	          0.00000000	          0.00000000	          0.00000000	          0.00000000	          0.00000000	         -1.41280743	          0.00000000	          0.00000000	          0.00000000	          0.00000000	
          0.38486429	        -29.13247372	        970.75278082	         12.36656482	         -0.00068804	          0.00000000	          0.00047109	          0.00000000	          0.00000000	          0.00000000	          0.00000000	          0.00000000	          0.00000000	          0.00000000	         -1.09956437	          0.00000000	          0.00000000	          0.00000000	          0.00000000	
          0.39271867	        -30.40000508	        983.67751397	         13.87082460	         -0.00047110	          0.00000000	          0.00035713	          0.00000000	          0.00000000	          0.00000000	          0.00000000	          0.00000000	          0.00000000	          0.00000000	         -0.82836651	          0.00000000	          0.00000000	          0.00000000	          0.00000000	
          0.40057304	        -31.52892273	        995.56766455	         15.56962558	         -0.00031163	          0.00000000	          0.00026357	          0.00000000	          0.00000000	          0.00000000	          0.00000000	          0.00000000	          0.00000000	          0.00000000	         -0.60366272	          0.00000000	          0.00000000	          0.00000000	          0.00000000	
          0.40842741	        -32.14929189	       1005.52944144	         17.46636887	         -0.00020083	          0.00000000	          0.00019128	          0.00000000	          0.00000000	          0.00000000	          0.00000000	          0.00000000	          0.00000000	          0.00000000	         -0.43286661	          0.00000000	          0.00000000	          0.00000000	          0.00000000	
          0.41628179	        -32.17403211	       1012.26552779	         19.46304143	         -0.00012926	          0.00000000	          0.00014039	          0.00000000	          0.00000000	          0.00000000	          0.00000000	          0.00000000	          0.00000000	          0.00000000	         -0.31497125	          0.00000000	          0.00000000	          0.00000000	          0.00000000	
          0.42413616	        -31.80489359	       1015.33889015	         21.43457693	         -0.00008506	          0.00000000	          0.00010716	          0.00000000	          0.00000000	          0.00000000	          0.00000000	          0.00000000	          0.00000000	          0.00000000	         -0.23888989	          0.00000000	          0.00000000	          0.00000000	          0.00000000	
          0.43199053	        -30.74560217	       1014.61997422	         23.23094365	         -0.00005812	          0.00000000	          0.00008698	          0.00000000	          0.00000000	          0.00000000	          0.00000000	          0.00000000	          0.00000000	          0.00000000	         -0.19264616	          0.00000000	          0.00000000	          0.00000000	          0.00000000	
          0.43984491	        -29.10968242	       1010.02892651	         24.71832367	         -0.00004149	          0.00000000	          0.00007632	          0.00000000	          0.00000000	          0.00000000	          0.00000000	          0.00000000	          0.00000000	          0.00000000	         -0.16781061	          0.00000000	          0.00000000	          0.00000000	          0.00000000	
          0.44769928	        -27.34650299	       1001.53846419	         25.98319705	         -0.00003063	          0.00000000	          0.00007296	          0.00000000	          0.00000000	          0.00000000	          0.00000000	          0.00000000	          0.00000000	          0.00000000	         -0.15878193	          0.00000000	          0.00000000	          0.00000000	          0.00000000	
          0.45555365	        -25.37279614	        989.89950844	         26.93045247	         -0.00002259	          0.00000000	          0.00007614	          0.00000000	          0.00000000	          0.00000000	          0.00000000	          0.00000000	          0.00000000	          0.00000000	         -0.16359367	          0.00000000	          0.00000000	          0.00000000	          0.00000000	
          0.46340803	        -22.62558116	        976.24276805	         27.28848198	         -0.00001502	          0.00000000	          0.00008628	          0.00000000	          0.00000000	          0.00000000	          0.00000000	          0.00000000	          0.00000000	          0.00000000	         -0.18295981	          0.00000000	          0.00000000	          0.00000000	          0.00000000	
